<svg width="48" height="49" viewBox="0 0 48 49" fill="none" xmlns="http://www.w3.org/2000/svg">
<path d="M29.55 1.15234V1.99984H28.5C26.775 5.22484 28.125 7.09984 28.5 7.47484H29.775V14.3748H44.025V15.8748H42.975C41.25 19.0998 42.6 20.8998 42.975 21.3498H44.25V37.3743C46.6208 33.6536 48 29.2391 48 24.4998C48 13.1561 40.128 3.65734 29.55 1.15234ZM18.075 42.9498V34.6998H8.175H8.025C7.65 34.6998 6.3 34.6248 5.175 33.5748C4.125 32.5998 3.6 31.0998 3.6 29.1498V11.8593C1.32 15.5306 0 19.8603 0 24.4998C0 36.9243 9.441 47.1431 21.54 48.3753C20.979 48.2411 20.2815 47.9643 19.65 47.3748C18.6 46.3998 18.075 44.8998 18.075 42.9498ZM22.275 14.2998C19.95 14.2998 18.075 16.2498 18.075 18.5748C18.075 16.2498 19.95 14.2998 22.35 14.2998H22.275Z" fill="#E8E8E8"/>
<path d="M26.475 14.3H28.35V8.975H26.4V14.3H26.475ZM6.97505 8.9C7.20005 8.975 7.50005 8.975 7.80005 8.975H7.87505C7.57505 8.975 7.35005 8.975 7.05005 8.9C6.71405 8.825 6.37805 8.71325 6.0608 8.564C5.75555 8.9075 5.4608 9.2615 5.17505 9.62225V29.15C5.17505 30.65 5.47505 31.775 6.22505 32.45C7.05005 33.275 8.17505 33.2 8.17505 33.2H18.075V31.325H6.97505V8.9ZM7.80005 7.475H26.775C26.625 7.175 26.475 6.875 26.4 6.5H16.125V5H26.1751V4.4H12.15V3.63275C10.3341 4.66545 8.66034 5.93007 7.1708 7.39475C7.3733 7.44275 7.5818 7.475 7.80005 7.475ZM26.475 2.9C26.625 2.6 26.7 2.3 26.85 2H15.6375C14.9211 2.26632 14.2178 2.56666 13.5301 2.9H26.475ZM22.275 15.725C20.775 15.725 19.575 17 19.575 18.5C19.575 20.075 20.775 21.275 22.275 21.275H41.25C41.1 20.975 40.95 20.675 40.875 20.3H30.6V18.8H40.65V18.2H26.625V16.7H40.95C41.1 16.4 41.175 16.1 41.325 15.8V15.725H22.275Z" fill="#E8E8E8"/>
<path d="M36.141 45.1999H40.875V22.7749H22.2C21.927 22.7749 21.7117 22.7682 21.45 22.7119V45.1999H36.141Z" fill="#9DE8F7"/>
<path d="M22.2751 21.275H41.2501C41.1001 20.975 40.9501 20.675 40.8751 20.3H30.6001V18.8H40.6501V18.2H26.6251V16.7H40.9501C41.1001 16.4 41.1751 16.1 41.3251 15.8V15.725H22.2751C20.7751 15.725 19.5751 17 19.5751 18.5C19.5751 20.075 20.7751 21.275 22.2751 21.275ZM7.17085 7.39475C7.37335 7.44275 7.58185 7.475 7.8001 7.475H26.7751C26.6251 7.175 26.4751 6.875 26.4001 6.5H16.1251V5H26.1751V4.4H12.1501V2.9H26.4751C26.6251 2.6 26.7001 2.3 26.8501 2H7.8001C6.3751 2 5.1001 3.2 5.1001 4.7C5.1001 6.04625 5.97985 7.11125 7.17085 7.39475Z" fill="white"/>
<path d="M22.35 14.3H28.35V8.975H7.87505C7.57505 8.975 7.35005 8.975 7.05005 8.9C6.71405 8.825 6.37805 8.71325 6.0608 8.564C5.74055 8.414 5.43905 8.22575 5.17505 8V29.15C5.17505 30.65 5.47505 31.775 6.22505 32.45C7.05005 33.275 8.17505 33.2 8.17505 33.2H18.0751V18.575C18.0751 16.25 19.95 14.3 22.35 14.3Z" fill="white"/>
<path d="M42.9751 21.35C42.6001 20.9 41.2501 19.1 42.9751 15.875H44.0251V14.375H29.7751V7.475H28.5001C28.1251 7.1 26.7751 5.225 28.5001 2H29.5501V0.5H7.8001C5.4751 0.5 3.6001 2.375 3.6001 4.775V29.15C3.6001 31.1 4.1251 32.6 5.1751 33.575C6.3001 34.625 7.6501 34.7 8.0251 34.7H18.0751V42.95C18.0751 44.9 18.6001 46.4 19.6501 47.375C20.2816 47.9645 20.9791 48.2412 21.5401 48.3755C21.9781 48.4798 22.3358 48.5 22.5001 48.5H44.2501V21.35H42.9751ZM41.3251 15.725V15.8C41.1751 16.1 41.1001 16.4 40.9501 16.7H26.6251V18.2H40.6501V18.8H30.6001V20.3H40.8751C40.9501 20.675 41.1001 20.975 41.2501 21.275H22.2751C20.7751 21.275 19.5751 20.075 19.5751 18.5C19.5751 17 20.7751 15.725 22.2751 15.725H41.3251ZM18.0751 31.325V33.2H8.1751C8.1751 33.2 7.0501 33.275 6.2251 32.45C5.4751 31.775 5.1751 30.65 5.1751 29.15V8C5.4391 8.22575 5.7406 8.414 6.06085 8.564C6.3781 8.71325 6.7141 8.825 7.0501 8.9C7.3501 8.975 7.5751 8.975 7.8751 8.975H28.3501V14.3H22.3501C19.9501 14.3 18.0751 16.25 18.0751 18.575V31.325ZM7.8001 2H26.8501C26.7001 2.3 26.6251 2.6 26.4751 2.9H12.1501V4.4H26.1751V5H16.1251V6.5H26.4001C26.4751 6.875 26.6251 7.175 26.7751 7.475H7.8001C7.58185 7.475 7.37335 7.44275 7.17085 7.39475C5.97985 7.11125 5.1001 6.04625 5.1001 4.7C5.1001 3.2 6.3751 2 7.8001 2ZM42.7501 39.473V47H22.5751C22.5751 47 21.5251 47.075 20.6251 46.25C19.8751 45.575 19.5001 44.45 19.5001 42.95V21.8C20.0251 22.25 20.7001 22.55 21.3751 22.7C21.4021 22.7068 21.4238 22.706 21.4501 22.712C21.7118 22.7682 21.9271 22.775 22.2001 22.775H42.7501V39.473Z" fill="black"/>
<path d="M22.2751 14.3004H26.4001V8.97539H7.8001C7.5001 8.97539 7.2001 8.97539 6.9751 8.90039V31.3254H18.0751V18.5754C18.0751 16.2504 19.9501 14.3004 22.2751 14.3004Z" fill="#FAD97F"/>
</svg>
