<svg width="1000" height="1000" viewBox="0 0 1000 1000" fill="none" xmlns="http://www.w3.org/2000/svg">
<rect width="1000" height="1000" fill="#125CFA"/>
<circle cx="500" cy="500" r="426" fill="white"/>
<path d="M499.5 582.762C549.884 582.762 598.204 562.757 633.831 527.147C669.458 491.538 689.473 443.241 689.473 392.881C689.473 342.522 669.458 294.225 633.831 258.615C598.204 223.005 549.884 203 499.5 203C449.116 203 400.796 223.005 365.169 258.615C329.542 294.225 309.527 342.522 309.527 392.881C309.527 443.241 329.542 491.538 365.169 527.147C400.796 562.757 449.116 582.762 499.5 582.762ZM499.5 666.187C246.919 666.187 85 805.505 85 873.337V1000H914V873.337C914 791.306 760.71 666.187 499.5 666.187Z" fill="#125CFA"/>
</svg>
