<svg width="290" height="88" viewBox="0 0 290 88" fill="none" xmlns="http://www.w3.org/2000/svg">
<path d="M96.2589 44.1966C96.4438 44.1966 96.605 44.1277 96.7426 43.9897C96.8802 43.8518 96.9447 43.6902 96.9363 43.5049C96.9363 43.4045 96.925 43.3249 96.9024 43.2662C96.8798 43.2075 96.8572 43.1668 96.8347 43.1442L94.5721 39.9423C96.0988 38.4217 96.9207 36.1068 97.0378 32.9976C97.083 31.9961 97.1056 31.0392 97.1056 30.1268C97.1056 29.2144 97.083 28.2532 97.0378 27.2432C96.9885 25.1596 96.5666 23.4229 95.7721 22.0331C94.9777 20.6433 93.8873 19.6046 92.501 18.9172C91.1147 18.2297 89.4987 17.8859 87.653 17.8859C85.8074 17.8859 84.1914 18.2297 82.8051 18.9172C81.4187 19.6046 80.334 20.6433 79.5509 22.0331C78.7677 23.4229 78.3402 25.1596 78.2682 27.2432C78.2457 28.2532 78.2344 29.2144 78.2344 30.1268C78.2344 31.0392 78.2457 31.9961 78.2682 32.9976C78.3402 35.1039 78.7505 36.8508 79.499 38.2385C80.2476 39.6262 81.3094 40.6549 82.6844 41.3247C84.0595 41.9945 85.7157 42.3294 87.653 42.3294C89.2518 42.3294 90.6586 42.0564 91.8735 41.5104L93.2619 43.4158C93.3748 43.5516 93.5237 43.7157 93.7085 43.908C93.8934 44.1004 94.1269 44.1966 94.4091 44.1966H96.2589ZM87.653 39.4336C85.9542 39.4336 84.5497 38.9141 83.4398 37.8749C82.3298 36.8357 81.7339 35.1513 81.6521 32.8215C81.6295 31.8115 81.6182 30.9048 81.6182 30.1013C81.6182 29.2978 81.6295 28.3954 81.6521 27.3939C81.7114 25.8407 82.0041 24.5754 82.5305 23.5979C83.0568 22.6205 83.7631 21.9067 84.6494 21.4567C85.5357 21.0067 86.5369 20.7817 87.653 20.7817C88.7918 20.7817 89.8031 21.0067 90.6871 21.4567C91.5711 21.9067 92.2763 22.6205 92.8026 23.5979C93.3289 24.5754 93.6126 25.8407 93.6535 27.3939C93.6986 28.3954 93.7212 29.2978 93.7212 30.1013C93.7212 30.9048 93.6986 31.8115 93.6535 32.8215C93.5759 35.1513 92.9857 36.8357 91.883 37.8749C90.7802 38.9141 89.3703 39.4336 87.653 39.4336ZM101.759 41.9899C102.027 41.9899 102.229 41.9213 102.363 41.7841C102.498 41.6469 102.581 41.5245 102.612 41.417L104.471 36.5835H115.577L117.435 41.417C117.484 41.5245 117.573 41.6469 117.701 41.7841C117.828 41.9213 118.024 41.9899 118.288 41.9899H120.013C120.198 41.9899 120.359 41.921 120.496 41.783C120.634 41.6451 120.702 41.4835 120.702 41.2982C120.702 41.1893 120.682 41.0733 120.641 40.9502L112.264 18.9872C112.178 18.7566 112.052 18.572 111.886 18.4334C111.72 18.2948 111.485 18.2254 111.18 18.2254H108.867C108.562 18.2254 108.327 18.2948 108.161 18.4334C107.995 18.572 107.87 18.7566 107.783 18.9872L99.4061 40.9502C99.3652 41.0733 99.3447 41.1893 99.3447 41.2982C99.3447 41.4835 99.4135 41.6451 99.5511 41.783C99.6887 41.921 99.8499 41.9899 100.035 41.9899H101.759ZM114.592 33.6872H105.455L110.021 21.6347L114.592 33.6872ZM139.525 41.9899C139.774 41.9899 139.97 41.9178 140.114 41.7735C140.258 41.6292 140.329 41.4418 140.329 41.2112V39.8368C140.329 39.5878 140.258 39.3912 140.114 39.2469C139.97 39.1026 139.774 39.0305 139.525 39.0305H127.062L139.532 21.6904C139.649 21.5362 139.751 21.3675 139.839 21.1843C139.928 21.0011 139.972 20.7688 139.972 20.4873V19.0317C139.972 18.7828 139.9 18.5862 139.756 18.4419C139.612 18.2976 139.416 18.2254 139.167 18.2254H123.829C123.599 18.2254 123.412 18.2976 123.268 18.4419C123.124 18.5862 123.052 18.7828 123.052 19.0317V20.3934C123.052 20.624 123.124 20.8114 123.268 20.9557C123.412 21.1 123.599 21.1721 123.829 21.1721H135.868L123.249 38.4443C123.177 38.5349 123.074 38.6855 122.941 38.8963C122.808 39.1071 122.741 39.3801 122.741 39.7153V41.1836C122.741 41.4142 122.813 41.6062 122.957 41.7597C123.101 41.9132 123.288 41.9899 123.518 41.9899H139.525ZM144.769 41.9899C145.037 41.9899 145.239 41.9213 145.374 41.7841C145.508 41.6469 145.591 41.5245 145.622 41.417L147.481 36.5835H158.587L160.445 41.417C160.494 41.5245 160.583 41.6469 160.711 41.7841C160.838 41.9213 161.034 41.9899 161.298 41.9899H163.023C163.208 41.9899 163.369 41.921 163.506 41.783C163.644 41.6451 163.712 41.4835 163.712 41.2982C163.712 41.1893 163.692 41.0733 163.651 40.9502L155.274 18.9872C155.188 18.7566 155.062 18.572 154.896 18.4334C154.73 18.2948 154.495 18.2254 154.19 18.2254H151.877C151.572 18.2254 151.337 18.2948 151.171 18.4334C151.005 18.572 150.88 18.7566 150.794 18.9872L142.416 40.9502C142.375 41.0733 142.355 41.1893 142.355 41.2982C142.355 41.4835 142.424 41.6451 142.561 41.783C142.699 41.921 142.86 41.9899 143.045 41.9899H144.769ZM157.602 33.6872H148.465L153.031 21.6347L157.602 33.6872ZM183.998 44.1966C184.183 44.1966 184.344 44.1277 184.481 43.9897C184.619 43.8518 184.684 43.6902 184.675 43.5049C184.675 43.4045 184.664 43.3249 184.641 43.2662C184.619 43.2075 184.596 43.1668 184.573 43.1442L182.311 39.9423C183.838 38.4217 184.66 36.1068 184.777 32.9976C184.822 31.9961 184.844 31.0392 184.844 30.1268C184.844 29.2144 184.822 28.2532 184.777 27.2432C184.727 25.1596 184.305 23.4229 183.511 22.0331C182.717 20.6433 181.626 19.6046 180.24 18.9172C178.853 18.2297 177.237 17.8859 175.392 17.8859C173.546 17.8859 171.93 18.2297 170.544 18.9172C169.158 19.6046 168.073 20.6433 167.29 22.0331C166.507 23.4229 166.079 25.1596 166.007 27.2432C165.985 28.2532 165.973 29.2144 165.973 30.1268C165.973 31.0392 165.985 31.9961 166.007 32.9976C166.079 35.1039 166.489 36.8508 167.238 38.2385C167.986 39.6262 169.048 40.6549 170.423 41.3247C171.798 41.9945 173.455 42.3294 175.392 42.3294C176.991 42.3294 178.397 42.0564 179.612 41.5104L181.001 43.4158C181.114 43.5516 181.262 43.7157 181.447 43.908C181.632 44.1004 181.866 44.1966 182.148 44.1966H183.998ZM175.392 39.4336C173.693 39.4336 172.289 38.9141 171.179 37.8749C170.069 36.8357 169.473 35.1513 169.391 32.8215C169.368 31.8115 169.357 30.9048 169.357 30.1013C169.357 29.2978 169.368 28.3954 169.391 27.3939C169.45 25.8407 169.743 24.5754 170.269 23.5979C170.796 22.6205 171.502 21.9067 172.388 21.4567C173.275 21.0067 174.276 20.7817 175.392 20.7817C176.531 20.7817 177.542 21.0067 178.426 21.4567C179.31 21.9067 180.015 22.6205 180.541 23.5979C181.068 24.5754 181.351 25.8407 181.392 27.3939C181.437 28.3954 181.46 29.2978 181.46 30.1013C181.46 30.9048 181.437 31.8115 181.392 32.8215C181.315 35.1513 180.725 36.8357 179.622 37.8749C178.519 38.9141 177.109 39.4336 175.392 39.4336ZM200.526 41.9899C200.756 41.9899 200.942 41.9178 201.086 41.7735C201.23 41.6292 201.302 41.4418 201.302 41.2112V24.5161L206.977 35.5756C207.09 35.7935 207.229 35.9664 207.393 36.0944C207.557 36.2224 207.781 36.2864 208.065 36.2864H209.115C209.399 36.2864 209.627 36.2224 209.801 36.0944C209.974 35.9664 210.108 35.7935 210.203 35.5756L215.877 24.5161V41.2112C215.877 41.4418 215.949 41.6292 216.093 41.7735C216.237 41.9178 216.424 41.9899 216.654 41.9899H218.299C218.547 41.9899 218.743 41.9178 218.887 41.7735C219.031 41.6292 219.103 41.4418 219.103 41.2112V19.0317C219.103 18.7828 219.031 18.5862 218.887 18.4419C218.743 18.2976 218.547 18.2254 218.299 18.2254H216.635C216.367 18.2254 216.17 18.2948 216.046 18.4334C215.921 18.572 215.834 18.6795 215.784 18.7559L208.59 32.4762L201.423 18.7559C201.392 18.6795 201.31 18.572 201.176 18.4334C201.042 18.2948 200.841 18.2254 200.573 18.2254H198.881C198.651 18.2254 198.46 18.2976 198.307 18.4419C198.154 18.5862 198.077 18.7828 198.077 19.0317V41.2112C198.077 41.4418 198.154 41.6292 198.307 41.7735C198.46 41.9178 198.651 41.9899 198.881 41.9899H200.526ZM237.853 16.528C238.079 16.528 238.26 16.4601 238.395 16.3243C238.531 16.1885 238.598 16.0074 238.598 15.7811V14.491C238.598 14.2647 238.531 14.0836 238.395 13.9478C238.26 13.812 238.079 13.7441 237.853 13.7441H229.963C229.737 13.7441 229.556 13.812 229.421 13.9478C229.286 14.0836 229.218 14.2647 229.218 14.491V15.7811C229.218 16.0074 229.286 16.1885 229.421 16.3243C229.556 16.4601 229.737 16.528 229.963 16.528H237.853ZM233.925 42.3294C235.844 42.3294 237.481 41.9899 238.835 41.3109C240.19 40.6319 241.234 39.5965 241.968 38.2046C242.702 36.8127 243.069 35.019 243.069 32.8236V19.0402C243.069 18.7913 242.995 18.5932 242.848 18.4461C242.702 18.299 242.515 18.2254 242.29 18.2254H240.529C240.303 18.2254 240.117 18.299 239.97 18.4461C239.823 18.5932 239.75 18.7913 239.75 19.0402V32.8915C239.75 35.1095 239.225 36.7504 238.175 37.8142C237.125 38.8779 235.709 39.4098 233.925 39.4098C232.119 39.4098 230.697 38.8779 229.658 37.8142C228.62 36.7504 228.1 35.1095 228.1 32.8915V19.0402C228.1 18.7913 228.027 18.5932 227.88 18.4461C227.733 18.299 227.536 18.2254 227.288 18.2254H225.56C225.312 18.2254 225.12 18.299 224.985 18.4461C224.849 18.5932 224.781 18.7913 224.781 19.0402V32.8236C224.781 35.019 225.148 36.8127 225.882 38.2046C226.616 39.5965 227.666 40.6319 229.032 41.3109C230.397 41.9899 232.029 42.3294 233.925 42.3294ZM251.24 41.9899C251.488 41.9899 251.684 41.9178 251.828 41.7735C251.972 41.6292 252.044 41.4418 252.044 41.2112V32.4374H257.973L262.894 41.0733C263.017 41.2869 263.173 41.4931 263.362 41.6918C263.551 41.8905 263.835 41.9899 264.213 41.9899H265.845C266.029 41.9899 266.191 41.921 266.328 41.783C266.466 41.6451 266.535 41.4835 266.535 41.2982C266.535 41.185 266.501 41.0605 266.433 40.9248L261.222 31.9155C262.723 31.4756 263.906 30.7092 264.768 29.6165C265.631 28.5237 266.063 27.0996 266.063 25.3442C266.063 22.9889 265.318 21.2137 263.829 20.0184C262.339 18.8231 260.327 18.2254 257.791 18.2254H249.501C249.271 18.2254 249.084 18.2976 248.94 18.4419C248.796 18.5862 248.724 18.7828 248.724 19.0317V41.2112C248.724 41.4418 248.796 41.6292 248.94 41.7735C249.084 41.9178 249.271 41.9899 249.501 41.9899H251.24ZM257.654 29.573H252.044V21.0644H257.654C259.355 21.0644 260.618 21.428 261.442 22.1551C262.266 22.8821 262.678 23.9409 262.678 25.3314C262.678 26.7219 262.264 27.7765 261.436 28.4951C260.608 29.2137 259.347 29.573 257.654 29.573ZM271.057 41.9899C271.325 41.9899 271.527 41.9213 271.661 41.7841C271.796 41.6469 271.879 41.5245 271.91 41.417L273.769 36.5835H284.874L286.733 41.417C286.782 41.5245 286.871 41.6469 286.998 41.7841C287.126 41.9213 287.322 41.9899 287.586 41.9899H289.311C289.496 41.9899 289.657 41.921 289.794 41.783C289.932 41.6451 290 41.4835 290 41.2982C290 41.1893 289.98 41.0733 289.939 40.9502L281.562 18.9872C281.475 18.7566 281.349 18.572 281.184 18.4334C281.018 18.2948 280.783 18.2254 280.478 18.2254H278.165C277.86 18.2254 277.625 18.2948 277.459 18.4334C277.293 18.572 277.167 18.7566 277.081 18.9872L268.704 40.9502C268.663 41.0733 268.643 41.1893 268.643 41.2982C268.643 41.4835 268.711 41.6451 268.849 41.783C268.987 41.921 269.148 41.9899 269.333 41.9899H271.057ZM283.89 33.6872H274.753L279.318 21.6347L283.89 33.6872Z" fill="white"/>
<path d="M84.823 58.3995L84.8007 60.7785H84.3718V58.8183H83.5752V58.3995H84.823ZM78.2051 58.8183V50.6873H78.6563V58.4051H83.6086V50.6873H84.0598V58.8183H78.2051Z" fill="white"/>
<path d="M86.8701 58.0309L91.8669 50.6873H92.3181V58.8183H91.8669V51.4635L86.8701 58.8183H86.4188V50.6873H86.8701V58.0309Z" fill="white"/>
<path d="M97.2954 51.5194H98.0418C98.5543 51.5194 99.0167 51.6013 99.4289 51.7651C99.8449 51.9252 100.2 52.1504 100.493 52.4408C100.79 52.7312 101.017 53.07 101.173 53.4572C101.328 53.8444 101.406 54.2614 101.406 54.7081C101.406 55.1549 101.328 55.5719 101.173 55.9591C101.017 56.3463 100.79 56.6869 100.493 56.981C100.2 57.2714 99.8449 57.4985 99.4289 57.6623C99.0167 57.8261 98.5543 57.9081 98.0418 57.9081H97.2954C96.7829 57.9081 96.3187 57.828 95.9027 57.6679C95.4905 57.5041 95.1377 57.277 94.8443 56.9866C94.5509 56.6962 94.3262 56.3574 94.1703 55.9702C94.0143 55.583 93.9363 55.1661 93.9363 54.7193C93.9363 54.2725 94.0143 53.8556 94.1703 53.4684C94.3262 53.0812 94.5509 52.7424 94.8443 52.452C95.1377 52.1579 95.4905 51.9289 95.9027 51.7651C96.3187 51.6013 96.7829 51.5194 97.2954 51.5194ZM97.2954 51.9271C96.6863 51.9271 96.1645 52.0499 95.73 52.2956C95.2955 52.5414 94.9613 52.8746 94.7273 53.2953C94.4971 53.716 94.3819 54.1906 94.3819 54.7193C94.3819 55.1177 94.4469 55.4862 94.5769 55.825C94.7069 56.1638 94.8981 56.4579 95.1507 56.7074C95.4069 56.9568 95.7133 57.1523 96.0698 57.2938C96.4301 57.4315 96.8386 57.5004 97.2954 57.5004H98.053C98.6583 57.5004 99.1782 57.3794 99.6127 57.1374C100.047 56.8954 100.38 56.5641 100.61 56.1434C100.844 55.7189 100.961 55.2405 100.961 54.7081C100.961 54.3135 100.894 53.9468 100.76 53.608C100.63 53.2692 100.439 52.9751 100.187 52.7256C99.9377 52.4725 99.6332 52.277 99.2729 52.1393C98.9127 51.9978 98.5061 51.9271 98.053 51.9271H97.2954ZM97.8859 50.3466V59.1534H97.4402V50.3466H97.8859Z" fill="white"/>
<path d="M105.626 55.4341H103.22V55.0209H105.626C106.146 55.0209 106.569 54.9352 106.896 54.764C107.223 54.589 107.461 54.3563 107.609 54.0659C107.762 53.7718 107.838 53.4479 107.838 53.0942C107.838 52.7294 107.762 52.3962 107.609 52.0946C107.461 51.793 107.223 51.5529 106.896 51.3742C106.569 51.1918 106.146 51.1006 105.626 51.1006H103.454V58.8183H103.002V50.6873H105.626C106.209 50.6873 106.698 50.7878 107.091 50.9889C107.489 51.1899 107.788 51.471 107.988 51.8321C108.189 52.1895 108.289 52.6065 108.289 53.083C108.289 53.567 108.189 53.9859 107.988 54.3396C107.788 54.6895 107.49 54.9594 107.097 55.1493C106.703 55.3392 106.213 55.4341 105.626 55.4341Z" fill="white"/>
<path d="M115.233 50.6873V51.1006H111.105V50.6873H115.233ZM115.55 50.6873V58.8183H115.099V50.6873H115.55ZM110.932 50.6873H111.383L111.155 54.3116C111.114 54.9632 111.066 55.5365 111.01 56.0317C110.954 56.5231 110.88 56.9457 110.787 57.2993C110.694 57.653 110.572 57.9416 110.42 58.1649C110.271 58.3883 110.083 58.554 109.857 58.662C109.634 58.7662 109.365 58.8183 109.049 58.8183H108.849V58.4051L109.049 58.3995C109.276 58.3995 109.471 58.3604 109.634 58.2822C109.801 58.204 109.944 58.0756 110.063 57.8969C110.182 57.7145 110.282 57.4669 110.364 57.1541C110.446 56.8414 110.514 56.4486 110.57 55.9758C110.626 55.503 110.674 54.9371 110.715 54.2781L110.932 50.6873Z" fill="white"/>
<path d="M118.009 54.334H120.282C120.862 54.334 121.348 54.4289 121.742 54.6188C122.135 54.8087 122.431 55.0711 122.627 55.4062C122.828 55.7413 122.928 56.1303 122.928 56.5734C122.928 56.9047 122.871 57.2081 122.756 57.4836C122.644 57.7554 122.477 57.9918 122.254 58.1929C122.035 58.3939 121.76 58.5484 121.43 58.6564C121.099 58.7643 120.717 58.8183 120.282 58.8183H117.792V50.6873H118.243V58.4051H120.282C120.802 58.4051 121.222 58.3213 121.541 58.1538C121.864 57.9825 122.1 57.7573 122.249 57.478C122.397 57.1951 122.471 56.8898 122.471 56.5622C122.471 56.2457 122.397 55.9498 122.249 55.6743C122.1 55.3988 121.864 55.1772 121.541 55.0097C121.222 54.8384 120.802 54.7528 120.282 54.7528H118.009V54.334ZM124.945 50.6873V58.8183H124.494V50.6873H124.945Z" fill="white"/>
<path d="M130.571 50.6873V58.8183H130.12V50.6873H130.571ZM135.701 50.6873L132.053 54.9092H130.387L130.393 54.4959H131.802L135.122 50.6873H135.701ZM135.378 58.8183L131.724 54.8701L131.997 54.4736L135.952 58.8183H135.378Z" fill="white"/>
<path d="M138.133 50.6873V58.8183H137.682V50.6873H138.133Z" fill="white"/>
<path d="M142.982 50.6873V58.8183H142.536V50.6873H142.982ZM145.868 50.6873V51.1006H139.651V50.6873H145.868Z" fill="white"/>
<path d="M149.38 51.0335L146.494 58.8183H146.015L149.062 50.6873H149.435L149.38 51.0335ZM152.109 58.8183L149.229 51.0335L149.174 50.6873H149.541L152.594 58.8183H152.109ZM151.396 56.0317V56.4505H147.235V56.0317H151.396Z" fill="white"/>
<path d="M159.833 50.6873V58.8183H159.387V51.1006H154.435V58.8183H153.984V50.6873H159.833Z" fill="white"/>
<path d="M161.991 50.6873L164.476 54.3116L166.966 50.6873H167.517L164.754 54.6802L167.612 58.8183H167.066L164.476 55.0488L161.88 58.8183H161.345L164.203 54.6802L161.44 50.6873H161.991Z" fill="white"/>
<path d="M171.581 51.0335L168.696 58.8183H168.216L171.264 50.6873H171.637L171.581 51.0335ZM174.311 58.8183L171.431 51.0335L171.375 50.6873H171.743L174.795 58.8183H174.311ZM173.598 56.0317V56.4505H169.436V56.0317H173.598Z" fill="white"/>
<path d="M181.722 54.4233V54.8422H176.469V54.4233H181.722ZM176.625 50.6873V58.8183H176.174V50.6873H176.625ZM182.045 50.6873V58.8183H181.594V50.6873H182.045Z" fill="white"/>
<path d="M186.883 51.0335L183.998 58.8183H183.519L186.566 50.6873H186.939L186.883 51.0335ZM189.613 58.8183L186.733 51.0335L186.677 50.6873H187.045L190.098 58.8183H189.613ZM188.9 56.0317V56.4505H184.739V56.0317H188.9Z" fill="white"/>
<path d="M196.699 54.8589L193.574 50.6873H194.136L196.933 54.4401H198.125L198.119 54.8589H196.699ZM197.022 54.8254L193.958 58.8183H193.379L196.738 54.4289L197.022 54.8254ZM198.398 50.6873V58.8183H197.952V50.6873H198.398ZM202.759 50.6873L199.629 54.8589H198.225V54.4401H199.406L202.197 50.6873H202.759ZM202.381 58.8183L199.317 54.8254L199.595 54.4289L202.96 58.8183H202.381Z" fill="white"/>
<path d="M203.949 50.6873L206.623 55.3224L209.319 50.6873H209.854L206.845 55.7413V58.8183H206.394V55.7413L203.386 50.6873H203.949Z" fill="white"/>
<path d="M211.7 58.0309L216.697 50.6873H217.148V58.8183H216.697V51.4635L211.7 58.8183H211.249V50.6873H211.7V58.0309ZM215.416 48.6992H215.822C215.822 48.9747 215.759 49.2186 215.633 49.4308C215.51 49.643 215.33 49.8087 215.093 49.9278C214.859 50.0469 214.578 50.1065 214.251 50.1065C213.761 50.1065 213.375 49.9762 213.093 49.7156C212.814 49.4513 212.675 49.1125 212.675 48.6992H213.076C213.076 48.9784 213.163 49.2204 213.338 49.4252C213.516 49.6262 213.821 49.7268 214.251 49.7268C214.664 49.7268 214.961 49.6244 215.143 49.4196C215.325 49.2149 215.416 48.9747 215.416 48.6992Z" fill="white"/>
<path d="M224.42 58.4051V58.8183H219.691V58.4051H224.42ZM219.892 50.6873V58.8183H219.44V50.6873H219.892ZM223.852 54.4233V54.8422H219.691V54.4233H223.852ZM224.409 50.6873V51.1006H219.691V50.6873H224.409Z" fill="white"/>
<path d="M231.203 56.3109H231.654C231.598 56.8805 231.446 57.3608 231.197 57.7517C230.948 58.1389 230.614 58.433 230.194 58.634C229.778 58.8314 229.288 58.93 228.724 58.93C228.274 58.93 227.866 58.8444 227.498 58.6731C227.134 58.4981 226.82 58.2524 226.557 57.936C226.297 57.6158 226.096 57.2342 225.955 56.7912C225.814 56.3481 225.743 55.8585 225.743 55.3224V54.1832C225.743 53.6434 225.814 53.1538 225.955 52.7145C226.096 52.2714 226.297 51.8917 226.557 51.5752C226.82 51.2551 227.136 51.0093 227.504 50.8381C227.875 50.6631 228.289 50.5756 228.746 50.5756C229.299 50.5756 229.784 50.6743 230.2 50.8716C230.616 51.0689 230.948 51.363 231.197 51.7539C231.446 52.1411 231.598 52.6195 231.654 53.1892H231.203C231.147 52.7163 231.019 52.318 230.818 51.9941C230.621 51.6664 230.35 51.417 230.005 51.2457C229.66 51.0745 229.24 50.9889 228.746 50.9889C228.356 50.9889 228.005 51.0652 227.693 51.2178C227.381 51.3667 227.114 51.5827 226.891 51.8656C226.668 52.1449 226.495 52.4799 226.373 52.8708C226.254 53.258 226.195 53.6918 226.195 54.172V55.3224C226.195 55.7953 226.254 56.229 226.373 56.6236C226.492 57.0145 226.661 57.3515 226.88 57.6344C227.099 57.9136 227.364 58.1314 227.676 58.2878C227.988 58.4404 228.337 58.5168 228.724 58.5168C229.218 58.5168 229.639 58.4386 229.988 58.2822C230.337 58.1221 230.612 57.8783 230.813 57.5506C231.017 57.223 231.147 56.8098 231.203 56.3109Z" fill="white"/>
<path d="M234.208 50.6873V58.8183H233.757V50.6873H234.208Z" fill="white"/>
<path d="M0 83.0863C0 58.3838 0 33.6365 0 8.93401C5.16885 8.93401 10.2931 8.93401 15.5957 8.93401C15.5957 5.76244 15.5957 2.90355 15.5957 0C22.4132 0 29.2753 0 36.0928 0C36.0928 4.60102 36.0928 9.15736 36.0928 13.7584C39.7912 13.7584 43.1777 13.7584 46.8316 13.7584C46.8316 10.4975 46.8316 7.37056 46.8316 4.0203C53.8273 4.0203 60.5557 4.0203 67.2842 4.0203C67.2842 28.7228 67.2842 53.4701 67.2842 78.1726C62.1153 78.1726 56.991 78.1726 51.6885 78.1726C51.6885 81.6569 51.6885 84.8284 51.6885 88C44.871 88 38.0089 88 31.1913 88C31.1913 83.399 31.1913 78.8426 31.1913 74.2416C27.4929 74.2416 24.1064 74.2416 20.4526 74.2416C20.4526 77.1898 20.4526 80.0487 20.4526 83.0863C13.5014 83.0863 6.72842 83.0863 0 83.0863ZM20.6308 5.00305C20.6308 26.534 20.6308 47.7523 20.6308 69.0599C24.1956 69.0599 27.6266 69.0599 31.0577 69.0599C31.0577 47.6183 31.0577 26.3107 31.0577 5.00305C27.4929 5.00305 24.1064 5.00305 20.6308 5.00305ZM51.7776 73.1249C55.3423 73.1249 58.7734 73.1249 62.2044 73.1249C62.2044 51.6832 62.2044 30.3756 62.2044 9.06802C58.6397 9.06802 55.2532 9.06802 51.7776 9.06802C51.7776 30.4203 51.7776 51.6386 51.7776 73.1249ZM15.462 78.0833C15.462 56.597 15.462 35.2893 15.462 14.0264C11.8527 14.0264 8.42166 14.0264 5.03517 14.0264C5.03517 35.468 5.03517 56.731 5.03517 78.0833C8.51078 78.0833 11.8973 78.0833 15.462 78.0833ZM46.6979 18.8954C43.044 18.8954 39.6576 18.8954 36.2711 18.8954C36.2711 40.3371 36.2711 61.6447 36.2711 82.9076C39.8358 82.9076 43.3114 82.9076 46.6979 82.9076C46.6979 61.5107 46.6979 40.2477 46.6979 18.8954Z" fill="white"/>
</svg>
