<svg width="800" height="800" viewBox="0 0 800 800" fill="none" xmlns="http://www.w3.org/2000/svg">
<g clip-path="url(#clip0_7125_35938)">
<path fill-rule="evenodd" clip-rule="evenodd" d="M254.549 109.091V72.7273C254.549 32.5611 287.11 0 327.276 0H472.731C512.898 0 545.458 32.5611 545.458 72.7273H690.913C731.08 72.7273 763.64 105.288 763.64 145.455V727.273C763.64 767.44 731.08 800 690.913 800H545.458C532.211 800 519.793 796.458 509.094 790.269C498.396 796.458 485.978 800 472.731 800H327.276C314.029 800 301.61 796.458 290.913 790.269C280.216 796.458 267.796 800 254.549 800H109.094C68.9283 800 36.3672 767.44 36.3672 727.273V181.818C36.3672 141.652 68.9283 109.091 109.094 109.091H254.549ZM254.549 181.818H109.094V727.273H254.549V181.818ZM545.458 727.273H690.913V145.455H545.458V727.273ZM327.276 72.7273V727.273H472.731V72.7273H327.276ZM145.458 509.091C145.458 489.007 161.739 472.727 181.822 472.727C201.905 472.727 218.185 489.007 218.185 509.091V654.545C218.185 674.629 201.905 690.909 181.822 690.909C161.739 690.909 145.458 674.629 145.458 654.545V509.091ZM363.64 436.364C363.64 416.28 379.92 400 400.004 400C420.087 400 436.367 416.28 436.367 436.364V654.545C436.367 674.629 420.087 690.909 400.004 690.909C379.92 690.909 363.64 674.629 363.64 654.545V436.364ZM581.822 581.818C581.822 561.735 598.102 545.455 618.185 545.455C638.269 545.455 654.549 561.735 654.549 581.818V654.545C654.549 674.629 638.269 690.909 618.185 690.909C598.102 690.909 581.822 674.629 581.822 654.545V581.818Z" fill="#3062D4"/>
</g>
<defs>
<clipPath id="clip0_7125_35938">
<rect width="800" height="800" fill="white"/>
</clipPath>
</defs>
</svg>
