<svg width="134" height="65" viewBox="0 0 134 65" fill="none" xmlns="http://www.w3.org/2000/svg">
<g clip-path="url(#clip0_7142_35939)">
<path d="M103.155 28.2809V13.1393C103.155 12.966 103.282 12.8242 103.456 12.8242H110.973C113.569 12.8242 115.658 14.6362 115.658 18.4806C115.658 22.3094 113.569 24.1214 110.973 24.1214H107.587V28.2809C107.587 28.4542 107.444 28.5803 107.286 28.5803H103.456C103.282 28.5803 103.155 28.4542 103.155 28.2809ZM109.549 20.4344C110.451 20.4344 111.179 19.6939 111.179 18.4806C111.179 17.2517 110.451 16.5111 109.549 16.5111H107.745C107.666 16.5111 107.587 16.5899 107.587 16.6687V20.2768C107.587 20.3714 107.666 20.4344 107.745 20.4344H109.549Z" fill="#61A3B4"/>
<path d="M96.7556 12.8242C96.8822 12.8242 97.0088 12.9187 97.0404 13.029L102.643 28.0761C102.659 28.1076 102.675 28.1391 102.675 28.1864V28.2809C102.659 28.4542 102.532 28.5803 102.358 28.5803H98.4806C98.3381 28.5803 98.2274 28.5015 98.1799 28.3912L97.3411 26.1223H92.2925L91.4379 28.3912C91.3904 28.5173 91.2796 28.596 91.153 28.596H87.2597C87.0857 28.596 86.959 28.4542 86.959 28.2809V28.1864C86.959 28.1391 86.959 28.1076 86.9749 28.0761L92.5773 13.029C92.6091 12.9187 92.7357 12.8242 92.8623 12.8242H96.7556ZM93.7327 22.2621H95.9009L94.8089 19.3472L93.7327 22.2621Z" fill="#61A3B4"/>
<path d="M89.5871 13.1393V16.2748C89.5871 16.4481 89.4605 16.5899 89.2864 16.5899H85.8046V28.2809C85.8046 28.4542 85.678 28.5803 85.5039 28.5803H81.674C81.4999 28.5803 81.3574 28.4542 81.3574 28.2809V16.5899H77.8915C77.7174 16.5899 77.5908 16.4481 77.5908 16.2748V13.1393C77.5908 12.966 77.7174 12.8242 77.8915 12.8242H89.2864C89.4447 12.8242 89.5871 12.966 89.5871 13.1393Z" fill="#61A3B4"/>
<path d="M76.823 28.5803H72.9931C72.819 28.5803 72.6924 28.4542 72.6924 28.2809V13.1393C72.6924 12.966 72.819 12.8242 72.9931 12.8242H76.823C76.9813 12.8242 77.1237 12.966 77.1237 13.1393V28.2809C77.1237 28.4542 76.9813 28.5803 76.823 28.5803Z" fill="#61A3B4"/>
<path d="M68.5532 20.7022C70.4839 22.0257 72.1458 24.3576 72.2248 28.2809C72.2407 28.4542 72.0983 28.5803 71.9241 28.5803H67.936C67.7619 28.5803 67.6194 28.4542 67.6194 28.2809C67.5402 24.6886 65.9102 22.9081 62.9665 22.7348V28.2809C62.9665 28.4542 62.824 28.5803 62.6658 28.5803H58.8359C58.6617 28.5803 58.5352 28.4542 58.5352 28.2809V13.1393C58.5352 12.966 58.6617 12.8242 58.8359 12.8242H62.6658C62.824 12.8242 62.9665 12.966 62.9665 13.1393V18.6855C65.9102 18.5122 67.5402 16.7317 67.6194 13.1393C67.6194 12.966 67.7619 12.8242 67.9201 12.8242H71.9241C72.0983 12.8242 72.2248 12.966 72.2248 13.1393C72.1458 17.0626 70.4839 19.3945 68.5532 20.7022Z" fill="#61A3B4"/>
<path d="M109.157 31.416C112.972 31.416 116.074 33.7637 116.074 39.2941C116.074 44.8402 112.972 47.1721 109.157 47.1721H103.143C102.969 47.1721 102.843 47.046 102.843 46.8727V31.7312C102.843 31.5578 102.969 31.416 103.143 31.416H109.157ZM108.16 43.4537C110.044 43.4537 111.579 42.2089 111.579 39.2941C111.579 36.3792 110.044 35.1344 108.16 35.1344H107.432C107.353 35.1344 107.274 35.1974 107.274 35.292V43.296C107.274 43.3749 107.353 43.4537 107.432 43.4537H108.16Z" fill="#D47D1A"/>
<path d="M96.6499 31.7312C96.6499 31.5578 96.7924 31.416 96.9665 31.416H100.796C100.955 31.416 101.097 31.5578 101.097 31.7312V46.8727C101.097 47.046 100.955 47.1721 100.796 47.1721H96.8398C96.7291 47.1721 96.6183 47.1248 96.5708 47.0302L91.6013 38.3014V46.8727C91.6013 47.046 91.4589 47.1721 91.3006 47.1721H87.4706C87.2966 47.1721 87.1699 47.046 87.1699 46.8727V31.7312C87.1699 31.5578 87.2966 31.416 87.4706 31.416H91.4272C91.5381 31.416 91.633 31.479 91.6963 31.5735L96.6499 39.5303V31.7312Z" fill="#D47D1A"/>
<path d="M79.5056 31.416C79.6322 31.416 79.7588 31.5105 79.7904 31.6209L85.393 46.6679C85.4087 46.6994 85.4246 46.7309 85.4246 46.7782V46.8727C85.4087 47.046 85.2822 47.1721 85.108 47.1721H81.2306C81.0881 47.1721 80.9774 47.0933 80.9299 46.983L80.0911 44.7142H75.0425L74.1878 46.983C74.1404 47.1091 74.0296 47.1879 73.903 47.1879H70.0097C69.8357 47.1879 69.709 47.046 69.709 46.8727V46.7782C69.709 46.7309 69.709 46.6994 69.7249 46.6679L75.3273 31.6209C75.359 31.5105 75.4857 31.416 75.6123 31.416H79.5056ZM76.4827 40.8539H78.6509L77.5589 37.939L76.4827 40.8539Z" fill="#D47D1A"/>
<path d="M67.9676 46.8727C67.9676 47.046 67.841 47.1721 67.6669 47.1721H58.8359C58.6617 47.1721 58.5352 47.046 58.5352 46.8727V31.7312C58.5352 31.5578 58.6617 31.416 58.8359 31.416H62.6658C62.824 31.416 62.9665 31.5578 62.9665 31.7312V43.5009H67.6669C67.841 43.5009 67.9676 43.6427 67.9676 43.8161V46.8727Z" fill="#D47D1A"/>
<path d="M46.5999 48.3665C33.0181 48.3665 19.4117 48.3665 5.83001 48.3665C5.83001 45.5302 5.83001 42.7183 5.83001 39.8086C4.08623 39.8086 2.51438 39.8086 0.917969 39.8086C0.917969 36.0676 0.917969 32.3021 0.917969 28.5611C3.44767 28.5611 5.95281 28.5611 8.4825 28.5611C8.4825 26.5317 8.4825 24.6734 8.4825 22.6684C6.68961 22.6684 4.9704 22.6684 3.12839 22.6684C3.12839 18.8295 3.12839 15.1374 3.12839 11.4453C16.7102 11.4453 30.3165 11.4453 43.8982 11.4453C43.8982 14.2816 43.8982 17.0935 43.8982 20.0032C45.8139 20.0032 47.5577 20.0032 49.3015 20.0032C49.3015 23.7442 49.3015 27.5097 49.3015 31.2507C46.7718 31.2507 44.2667 31.2507 41.737 31.2507C41.737 33.2801 41.737 35.1384 41.737 37.1434C43.358 37.1434 44.9298 37.1434 46.5999 37.1434C46.5999 40.9577 46.5999 44.6743 46.5999 48.3665ZM3.66871 37.0456C15.5067 37.0456 27.1728 37.0456 38.888 37.0456C38.888 35.0895 38.888 33.2068 38.888 31.3241C27.0991 31.3241 15.384 31.3241 3.66871 31.3241C3.66871 33.2801 3.66871 35.1384 3.66871 37.0456ZM41.123 19.9543C41.123 17.9982 41.123 16.1155 41.123 14.2327C29.334 14.2327 17.6189 14.2327 5.90368 14.2327C5.90368 16.1888 5.90368 18.0471 5.90368 19.9543C17.6435 19.9543 29.3095 19.9543 41.123 19.9543ZM43.8491 39.8819C32.0357 39.8819 20.3205 39.8819 8.62986 39.8819C8.62986 41.8625 8.62986 43.7452 8.62986 45.6035C20.4187 45.6035 32.1094 45.6035 43.8491 45.6035C43.8491 43.6963 43.8491 41.838 43.8491 39.8819ZM11.3069 22.7417C11.3069 24.7467 11.3069 26.605 11.3069 28.4633C23.0958 28.4633 34.811 28.4633 46.5017 28.4633C46.5017 26.5072 46.5017 24.6 46.5017 22.7417C34.7374 22.7417 23.0467 22.7417 11.3069 22.7417Z" fill="#D47D1A"/>
<path fill-rule="evenodd" clip-rule="evenodd" d="M3.94097 31.451H38.7944V36.762H3.94097V31.451ZM0.917969 28.4414H3.94097H38.7944H41.8175V31.451V36.762V37.1161H43.7736H46.6187V39.9486V45.6138V48.4463H43.7736H8.74223H5.89704V45.6138V39.9486V39.7716H3.94097H0.917969V36.762V31.451V28.4414ZM8.74223 39.9486H43.7736V45.6138H8.74223V39.9486Z" fill="#61A3B4"/>
</g>
<defs>
<clipPath id="clip0_7142_35939">
<rect width="116" height="37" fill="white" transform="translate(0.917969 11.4453)"/>
</clipPath>
</defs>
</svg>
