<svg width="61" height="70" viewBox="0 0 61 70" fill="none" xmlns="http://www.w3.org/2000/svg">
<path d="M30.5 20.5C33.1853 20.5 35.7607 19.4333 37.6595 17.5345C39.5583 15.6356 40.625 13.0603 40.625 10.375C40.625 7.68968 39.5583 5.11435 37.6595 3.21554C35.7607 1.31674 33.1853 0.25 30.5 0.25C27.8147 0.25 25.2393 1.31674 23.3405 3.21554C21.4417 5.11435 20.375 7.68968 20.375 10.375C20.375 13.0603 21.4417 15.6356 23.3405 17.5345C25.2393 19.4333 27.8147 20.5 30.5 20.5ZM30.5 32.4475C22.535 25.0562 11.9375 20.5 0.125 20.5V57.625C11.9375 57.625 22.535 62.1813 30.5 69.5725C38.465 62.1813 49.0625 57.625 60.875 57.625V20.5C49.0625 20.5 38.465 25.0562 30.5 32.4475Z" fill="#4E4E4E"/>
</svg>
