<svg width="165" height="165" viewBox="0 0 165 165" fill="none" xmlns="http://www.w3.org/2000/svg">
<rect width="165" height="165" fill="#125CFA"/>
<path fill-rule="evenodd" clip-rule="evenodd" d="M81.0681 44.5793C82.0023 44.2975 82.9985 44.2975 83.9327 44.5793H81.0681ZM83.9331 44.5794C84.1892 44.6568 84.6429 44.8497 85.608 45.5908C86.6222 46.3697 87.8637 47.4822 89.7964 49.2213L103.971 61.9766C104.574 62.5184 105.3 62.9045 106.085 63.101L113.899 65.054C118.64 66.2389 119.569 66.5686 120.174 67.021C120.174 67.0212 120.175 67.0214 120.175 67.0216C120.88 67.5499 121.432 68.2569 121.774 69.0696C122.066 69.7657 122.16 70.7469 122.16 75.6327V109.345C122.16 112.203 122.156 114.048 122.042 115.452C121.932 116.799 121.745 117.298 121.62 117.543L121.62 117.544C121.145 118.475 120.387 119.233 119.454 119.709C119.209 119.834 118.71 120.021 117.363 120.131C115.958 120.245 114.112 120.249 111.254 120.249H97.3729V105.38C97.3729 97.1678 90.7146 90.5099 82.5004 90.5099C74.2862 90.5099 67.6279 97.1678 67.6279 105.38V120.249H53.7469C50.8887 120.249 49.0431 120.245 47.6383 120.131C46.2935 120.021 45.7934 119.835 45.5477 119.71C44.6142 119.234 43.8561 118.476 43.381 117.544L43.3807 117.543C43.2559 117.298 43.0691 116.799 42.9591 115.452C42.8443 114.048 42.8404 112.203 42.8404 109.345V75.6327C42.8404 70.7448 42.935 69.765 43.2274 69.069C43.5689 68.2565 44.1209 67.5496 44.8265 67.0214C45.4309 66.5689 46.3587 66.2395 51.1017 65.054L58.9153 63.101C59.7013 62.9045 60.4271 62.5184 61.0293 61.9766L75.2043 49.2214C77.137 47.4822 78.3787 46.3697 79.3928 45.5908C80.3579 44.8497 80.8116 44.6568 81.0677 44.5794M53.5561 130.162C50.9426 130.163 48.6881 130.163 46.8312 130.011C44.8715 129.851 42.9223 129.498 41.0467 128.543L41.0455 128.542C38.2479 127.116 35.9726 124.842 34.5465 122.044C34.5464 122.043 34.5463 122.043 34.5463 122.043C33.5906 120.168 33.2371 118.219 33.077 116.26C32.9253 114.403 32.9254 112.149 32.9254 109.536L32.9254 75.6327C32.9254 75.3708 32.925 75.1112 32.9246 74.8538C32.9188 71.212 32.9138 68.0199 34.0865 65.2292C35.1108 62.7916 36.7668 60.671 38.8836 59.0862C41.3071 57.2719 44.4059 56.5026 47.9413 55.6249C48.191 55.5629 48.4429 55.5003 48.6969 55.4368C48.6969 55.4368 48.697 55.4368 48.6969 55.4368L55.3136 53.783L68.7011 41.7365C70.4644 40.1495 71.9945 38.7725 73.353 37.7292C74.7934 36.6231 76.338 35.652 78.2028 35.0891L78.2032 35.089C81.0057 34.2434 83.9951 34.2434 86.7976 35.089L86.798 35.0891C88.6628 35.652 90.2074 36.6231 91.6477 37.7292C93.0062 38.7725 94.5363 40.1495 96.2997 41.7364L96.4293 41.853L109.687 53.783L116.304 55.4368C116.304 55.4368 116.304 55.4368 116.304 55.4368C116.557 55.5002 116.809 55.5628 117.059 55.6247C120.595 56.5025 123.693 57.2718 126.117 59.0859L126.118 59.0866C128.234 60.6712 129.89 62.7915 130.914 65.2287L130.915 65.2295C132.087 68.02 132.082 71.212 132.076 74.8538C132.076 75.1112 132.075 75.3708 132.075 75.6327V109.536C132.075 112.149 132.076 114.403 131.924 116.26C131.764 118.219 131.41 120.168 130.455 122.043C130.454 122.043 130.454 122.043 130.454 122.044C129.028 124.843 126.753 127.117 123.956 128.542L123.954 128.543C122.079 129.498 120.129 129.851 118.17 130.011C116.313 130.163 114.058 130.163 111.445 130.162H53.5561ZM87.4579 120.249H77.5429V105.38C77.5429 102.642 79.7625 100.423 82.5004 100.423C85.2383 100.423 87.4579 102.642 87.4579 105.38V120.249ZM47.7979 78.1184C47.7979 75.381 50.0175 73.1619 52.7554 73.1619H57.7129C60.4509 73.1619 62.6704 75.381 62.6704 78.1184C62.6704 80.8559 60.4509 83.075 57.7129 83.075H52.7554C50.0175 83.075 47.7979 80.8559 47.7979 78.1184ZM75.0641 78.1184C75.0641 75.381 77.2837 73.1619 80.0216 73.1619H84.9791C87.7171 73.1619 89.9366 75.381 89.9366 78.1184C89.9366 80.8559 87.7171 83.075 84.9791 83.075H80.0216C77.2837 83.075 75.0641 80.8559 75.0641 78.1184ZM102.33 78.1184C102.33 75.381 104.55 73.1619 107.288 73.1619H112.245C114.983 73.1619 117.203 75.381 117.203 78.1184C117.203 80.8559 114.983 83.075 112.245 83.075H107.288C104.55 83.075 102.33 80.8559 102.33 78.1184ZM47.7979 97.9447C47.7979 95.2073 50.0175 92.9882 52.7554 92.9882H57.7129C60.4509 92.9882 62.6704 95.2073 62.6704 97.9447C62.6704 100.682 60.4509 102.901 57.7129 102.901H52.7554C50.0175 102.901 47.7979 100.682 47.7979 97.9447ZM102.33 97.9447C102.33 95.2073 104.55 92.9882 107.288 92.9882H112.245C114.983 92.9882 117.203 95.2073 117.203 97.9447C117.203 100.682 114.983 102.901 112.245 102.901H107.288C104.55 102.901 102.33 100.682 102.33 97.9447Z" fill="white"/>
</svg>
